<svg width="60" height="60" viewBox="0 0 60 60" fill="none" xmlns="http://www.w3.org/2000/svg">
<g filter="url(#filter0_d_39_2)">
<g clip-path="url(#clip0_39_2)">
<rect x="5" y="9" width="50" height="50" rx="25" fill="#0E1222"/>
<g filter="url(#filter1_di_39_2)">
<path d="M38.1644 9.06257C39.2108 8.72447 39.9424 9.12934 40.3592 10.2772C40.8434 11.6102 40.7711 13.4805 40.1423 15.8882C39.6032 17.048 39.3858 17.9442 39.4903 18.5768C39.0284 19.8343 38.4209 21.438 37.6676 23.388C36.9379 25.2876 36.4775 26.3768 36.2865 26.6558C35.6836 27.7549 35.0824 28.9162 34.4829 30.1398C33.8699 31.3264 33.5066 32.108 33.3928 32.4846C33.336 32.6729 33.2205 32.9872 33.0464 33.4277C32.8723 33.8681 32.7065 34.1588 32.549 34.2999L32.4337 34.8447C33.4984 36.5116 34.474 37.8757 35.3604 38.9368C36.2334 39.9609 37.3464 41.1284 38.6993 42.4392C39.4781 43.2041 40.2603 43.863 41.0457 44.416C41.868 44.9556 42.5475 45.2746 43.0843 45.373C43.2353 45.4439 43.4584 45.4258 43.7535 45.3186C44.0855 45.198 44.2498 45.0755 44.2463 44.951C45.0879 44.3939 45.8481 44.9351 46.527 46.5745C46.7722 46.9046 46.6719 47.3182 46.2261 47.8154C45.7803 48.3126 45.1886 48.6951 44.4508 48.9631L43.8773 49.1085C43.1126 49.3024 42.2588 49.1934 41.3158 48.7815C40.3729 48.3695 39.2267 47.5704 37.8772 46.384C35.2559 44.5699 32.7666 42.1421 30.4092 39.1005C29.8801 40.1728 29.5988 40.7779 29.5654 40.9157C28.8721 42.341 27.5947 45.3196 25.7332 49.8515C23.8583 54.3464 22.9026 56.831 22.866 57.3053C22.7692 57.8434 22.4625 58.2062 21.9461 58.3938C21.7616 58.4608 21.6074 58.4958 21.4832 58.499C21.3626 58.6266 21.2654 58.7039 21.1916 58.7307C21.0071 58.7976 20.8277 58.8209 20.6532 58.8004C20.6029 58.7768 20.5072 58.6858 20.3662 58.5275C20.2621 58.3558 20.1059 58.0981 19.8976 57.7547C19.6828 57.6231 19.5216 57.4092 19.4141 57.113C19.3199 56.8538 19.2744 56.556 19.2775 56.2196C19.3175 55.8698 19.3357 55.6327 19.3323 55.5082C19.3888 54.859 19.5041 54.3142 19.6782 53.8738C19.8757 53.3829 20.358 52.4114 21.125 50.9594L22.396 48.4231L23.4561 46.3407C23.9483 45.2818 24.1945 44.7524 24.1945 44.7524C24.191 44.6279 24.2646 44.3706 24.4152 43.9806C24.5659 43.5906 24.7098 43.1821 24.847 42.7551C25.43 41.8309 26.5536 39.5787 28.2179 35.9986C27.8149 35.3486 27.2337 34.3233 26.4745 32.9226C25.8463 31.7677 25.2467 30.7491 24.6757 29.8668C24.0913 28.9474 23.7487 28.4641 23.648 28.4168C23.5708 28.3192 23.5556 28.2199 23.6025 28.119C23.6494 28.0182 23.6913 27.9611 23.7282 27.9477C23.7751 27.8468 23.7851 27.7594 23.7582 27.6853C23.7313 27.6113 23.6608 27.5321 23.5466 27.4478C23.4325 27.3635 23.3368 27.2725 23.2596 27.1748C23.1051 26.9795 22.8062 26.5013 22.3628 25.7403C21.9059 24.9422 21.4272 24.0264 20.9265 22.9928C19.4515 19.9661 18.5964 18.244 18.3612 17.8264C18.2606 17.7792 18.1716 17.7067 18.0944 17.609C18.0406 17.4609 18.007 17.3683 17.9935 17.3313C17.9966 16.9949 18.1154 16.5746 18.3498 16.0703C18.6011 15.7276 18.8927 15.4959 19.2247 15.3753C19.8888 15.1342 20.595 15.2968 21.3435 15.8632C22.1289 16.4162 22.7233 17.2481 23.1268 18.3589C23.4764 19.3216 23.8022 19.8738 24.1043 20.0156C24.0843 20.1905 24.3986 20.9984 25.0471 22.4393C25.7326 23.8668 26.1979 24.7456 26.4431 25.0757C26.4569 25.5736 26.5712 25.8883 26.786 26.0199C26.9035 26.2286 27.1001 26.5973 27.3756 27.1259C27.6376 27.6175 27.7838 27.9626 27.8142 28.1611C27.8445 28.3596 28.0411 28.7283 28.4038 29.2672C28.753 29.769 29.0116 30.1361 29.1795 30.3685L30.187 31.7629L30.7093 30.4416L31.4978 28.6464C32.623 26.226 33.4869 24.2358 34.0895 22.6758C35.2208 19.5826 36.0442 17.2509 36.5595 15.6807C37.0614 14.0734 37.3656 12.7265 37.4721 11.6401C37.4786 11.4282 37.4934 11.0665 37.5165 10.5552C37.5765 10.0305 37.6533 9.6673 37.7471 9.4656C37.8409 9.2639 37.98 9.12956 38.1644 9.06257Z" fill="white"/>
</g>
</g>
</g>
<defs>
<filter id="filter0_d_39_2" x="0" y="0" width="60" height="60" filterUnits="userSpaceOnUse" color-interpolation-filters="sRGB">
<feFlood flood-opacity="0" result="BackgroundImageFix"/>
<feColorMatrix in="SourceAlpha" type="matrix" values="0 0 0 0 0 0 0 0 0 0 0 0 0 0 0 0 0 0 127 0" result="hardAlpha"/>
<feOffset dy="-4"/>
<feGaussianBlur stdDeviation="2.5"/>
<feComposite in2="hardAlpha" operator="out"/>
<feColorMatrix type="matrix" values="0 0 0 0 0 0 0 0 0 0 0 0 0 0 0 0 0 0 0.1 0"/>
<feBlend mode="normal" in2="BackgroundImageFix" result="effect1_dropShadow_39_2"/>
<feBlend mode="normal" in="SourceGraphic" in2="effect1_dropShadow_39_2" result="shape"/>
</filter>
<filter id="filter1_di_39_2" x="12.9935" y="-0.0528259" width="38.664" height="60.8605" filterUnits="userSpaceOnUse" color-interpolation-filters="sRGB">
<feFlood flood-opacity="0" result="BackgroundImageFix"/>
<feColorMatrix in="SourceAlpha" type="matrix" values="0 0 0 0 0 0 0 0 0 0 0 0 0 0 0 0 0 0 127 0" result="hardAlpha"/>
<feOffset dy="-4"/>
<feGaussianBlur stdDeviation="2.5"/>
<feComposite in2="hardAlpha" operator="out"/>
<feColorMatrix type="matrix" values="0 0 0 0 0 0 0 0 0 0 0 0 0 0 0 0 0 0 0.1 0"/>
<feBlend mode="normal" in2="BackgroundImageFix" result="effect1_dropShadow_39_2"/>
<feBlend mode="normal" in="SourceGraphic" in2="effect1_dropShadow_39_2" result="shape"/>
<feColorMatrix in="SourceAlpha" type="matrix" values="0 0 0 0 0 0 0 0 0 0 0 0 0 0 0 0 0 0 127 0" result="hardAlpha"/>
<feOffset dy="4"/>
<feGaussianBlur stdDeviation="1"/>
<feComposite in2="hardAlpha" operator="arithmetic" k2="-1" k3="1"/>
<feColorMatrix type="matrix" values="0 0 0 0 0 0 0 0 0 0 0 0 0 0 0 0 0 0 0.2 0"/>
<feBlend mode="normal" in2="shape" result="effect2_innerShadow_39_2"/>
</filter>
<clipPath id="clip0_39_2">
<rect x="5" y="9" width="50" height="50" rx="25" fill="white"/>
</clipPath>
</defs>
</svg>
