<svg width="50" height="50" viewBox="0 0 50 50" fill="none" xmlns="http://www.w3.org/2000/svg">
<rect width="50" height="50" rx="25" fill="#0E1222"/>
<g filter="url(#filter0_i_56_28)">
<path d="M41.3063 14.2687L22.1469 20.4937C21.9221 20.6386 21.6639 20.7236 21.3969 20.7406L14.8188 22.875H42.1876C42.602 22.875 42.9994 23.0396 43.2924 23.3326C43.5854 23.6256 43.7501 24.0231 43.7501 24.4375V40.0625C43.7501 42.1345 42.927 44.1216 41.4618 45.5867C39.9967 47.0519 38.0096 47.875 35.9376 47.875H14.0626C11.9905 47.875 10.0034 47.0519 8.53828 45.5867C7.07315 44.1216 6.25005 42.1345 6.25005 40.0625V24.4375C6.25005 24.1062 6.35318 23.7968 6.5313 23.5406L5.92193 21.6593C5.28181 19.6889 5.45061 17.5448 6.3912 15.6988C7.3318 13.8527 8.96715 12.4559 10.9376 11.8156L31.7407 5.05621C33.7112 4.41608 35.8552 4.58489 37.7012 5.52548C39.5473 6.46608 40.9441 8.10143 41.5844 10.0718L42.3094 12.3C42.4376 12.6936 42.4043 13.1221 42.2168 13.4912C42.0293 13.8604 41.7029 14.14 41.3094 14.2687H41.3063ZM29.6063 14.7843L33.6251 7.82808C33.3129 7.86391 33.0051 7.93091 32.7063 8.02808L28.8157 9.29058L24.7282 16.3687L29.6063 14.7843V14.7843ZM36.7782 8.59996C36.76 8.63928 36.7401 8.67786 36.7188 8.71558L34.0501 13.3406L38.8563 11.7781L38.6126 11.0375C38.2913 10.0425 37.6453 9.18413 36.7782 8.59996V8.59996ZM24.3719 10.7343L19.4969 12.3187L15.4094 19.3968L20.2876 17.8125L24.3751 10.7343H24.3719ZM9.13755 21.4375L10.9719 20.8437L15.0594 13.7625L11.9032 14.7875C10.7215 15.1723 9.74103 16.0107 9.1773 17.1182C8.61357 18.2257 8.51272 19.5118 8.89693 20.6937L9.13755 21.4375V21.4375Z" fill="white"/>
</g>
<defs>
<filter id="filter0_i_56_28" x="5.53969" y="4.67397" width="38.2104" height="45.201" filterUnits="userSpaceOnUse" color-interpolation-filters="sRGB">
<feFlood flood-opacity="0" result="BackgroundImageFix"/>
<feBlend mode="normal" in="SourceGraphic" in2="BackgroundImageFix" result="shape"/>
<feColorMatrix in="SourceAlpha" type="matrix" values="0 0 0 0 0 0 0 0 0 0 0 0 0 0 0 0 0 0 127 0" result="hardAlpha"/>
<feOffset dy="4"/>
<feGaussianBlur stdDeviation="1"/>
<feComposite in2="hardAlpha" operator="arithmetic" k2="-1" k3="1"/>
<feColorMatrix type="matrix" values="0 0 0 0 0 0 0 0 0 0 0 0 0 0 0 0 0 0 0.2 0"/>
<feBlend mode="normal" in2="shape" result="effect1_innerShadow_56_28"/>
</filter>
</defs>
</svg>
